<svg width="16" height="16" viewBox="0 0 16 16" fill="none" xmlns="http://www.w3.org/2000/svg">
<path fill-rule="evenodd" clip-rule="evenodd" d="M0.666667 0C0.298477 0 0 0.298477 0 0.666667C0 1.03486 0.298477 1.33333 0.666667 1.33333H2.78688L3.3413 4.10338C3.34425 4.12236 3.34801 4.14106 3.35253 4.15947L4.46622 9.72378C4.55776 10.1839 4.80817 10.5973 5.17365 10.8915C5.53747 11.1844 5.99225 11.3406 6.4591 11.3333H12.9276C13.3944 11.3406 13.8492 11.1844 14.213 10.8915C14.5787 10.5972 14.8291 10.1836 14.9206 9.72321L15.9882 4.12488C16.0254 3.92972 15.9736 3.72812 15.847 3.57504C15.7203 3.42195 15.532 3.33333 15.3333 3.33333H13.3333C13.3333 1.49238 11.8409 0 10 0C8.15905 0 6.66667 1.49238 6.66667 3.33333H4.54695L3.98704 0.535829C3.92467 0.224257 3.65108 0 3.33333 0H0.666667ZM6.94403 4.66667H4.81382L5.77389 9.46346C5.80437 9.61692 5.88786 9.75477 6.00974 9.85289C6.13162 9.951 6.28413 10.0031 6.44056 10.0001L6.45333 10H12.9333L12.9461 10.0001C13.1025 10.0031 13.255 9.951 13.3769 9.85289C13.4982 9.75523 13.5815 9.6182 13.6123 9.4656L14.5275 4.66667H13.056C12.5416 5.84394 11.3669 6.66667 10 6.66667C8.63312 6.66667 7.4584 5.84394 6.94403 4.66667ZM6 12.6667C5.26362 12.6667 4.66667 13.2636 4.66667 14C4.66667 14.7364 5.26362 15.3333 6 15.3333C6.73638 15.3333 7.33333 14.7364 7.33333 14C7.33333 13.2636 6.73638 12.6667 6 12.6667ZM13.3333 12.6667C12.597 12.6667 12 13.2636 12 14C12 14.7364 12.597 15.3333 13.3333 15.3333C14.0697 15.3333 14.6667 14.7364 14.6667 14C14.6667 13.2636 14.0697 12.6667 13.3333 12.6667ZM9.33333 2C9.33333 1.63181 9.63181 1.33333 10 1.33333C10.3682 1.33333 10.6667 1.63181 10.6667 2V2.66667H11.3333C11.7015 2.66667 12 2.96514 12 3.33333C12 3.70152 11.7015 4 11.3333 4H10.6667V4.66667C10.6667 5.03486 10.3682 5.33333 10 5.33333C9.63181 5.33333 9.33333 5.03486 9.33333 4.66667V4H8.66667C8.29848 4 8 3.70152 8 3.33333C8 2.96514 8.29848 2.66667 8.66667 2.66667H9.33333V2Z" fill="#377D75"/>
</svg>
